<svg width="37" height="75" viewBox="0 0 37 75" fill="none" xmlns="http://www.w3.org/2000/svg">
<path d="M7.73994 75.0002C5.90073 74.9871 4.14059 74.2507 2.84004 72.9501C1.53949 71.6496 0.803049 69.8894 0.789958 68.0502V27.3902C0.785509 27.3236 0.785509 27.2568 0.789958 27.1902C0.999958 25.3302 2.94994 22.8202 6.45994 19.8602L8.11994 18.4402H5.35993C5.10798 18.4402 4.86637 18.3401 4.68821 18.162C4.51005 17.9838 4.40995 17.7422 4.40995 17.4902C4.40995 17.2383 4.51005 16.9966 4.68821 16.8185C4.86637 16.6403 5.10798 16.5402 5.35993 16.5402H21L28 9.98021C28.1751 9.81308 28.4079 9.71996 28.6499 9.72022C28.7803 9.72066 28.909 9.74849 29.0279 9.8019C29.1468 9.8553 29.2531 9.93308 29.3399 10.0302C29.4257 10.121 29.4924 10.2279 29.5364 10.3447C29.5803 10.4615 29.6006 10.586 29.5959 10.7107C29.5912 10.8354 29.5618 10.958 29.5093 11.0712C29.4567 11.1845 29.3822 11.2861 29.29 11.3702L23.7399 16.5402H32.1C32.2501 16.4908 32.4099 16.4778 32.5661 16.5021C32.7223 16.5265 32.8705 16.5875 32.9986 16.6802C33.1267 16.7729 33.2309 16.8947 33.3028 17.0355C33.3747 17.1763 33.4122 17.3321 33.4122 17.4902C33.4122 17.6483 33.3747 17.8042 33.3028 17.945C33.2309 18.0858 33.1267 18.2075 32.9986 18.3002C32.8705 18.3929 32.7223 18.454 32.5661 18.4783C32.4099 18.5026 32.2501 18.4896 32.1 18.4402H29.3399L31.01 19.8602C34.51 22.8602 36.46 25.3302 36.66 27.1102C36.6682 27.2034 36.6682 27.2971 36.66 27.3902V68.0502C36.6468 69.8981 35.9034 71.6657 34.5921 72.9677C33.2808 74.2696 31.5078 75.0003 29.66 75.0002H7.73994ZM2.68995 68.0502C2.68992 68.7111 2.82087 69.3653 3.07527 69.9753C3.32966 70.5852 3.70244 71.1386 4.17204 71.6035C4.64164 72.0685 5.19876 72.4357 5.81117 72.6841C6.42358 72.9324 7.07913 73.0568 7.73994 73.0502H29.8399C31.1699 73.0477 32.4454 72.5217 33.3904 71.5859C34.3355 70.6502 34.8742 69.3801 34.89 68.0502V52.5202L34.4899 52.2602H34.4299C32.2281 50.7954 29.6445 50.0095 27 50.0002C23.8829 50.0404 20.8732 51.1448 18.47 53.1302C16.5966 54.4678 14.4958 55.4538 12.2699 56.0402V54.0402C14.0598 53.5083 15.7493 52.6839 17.2699 51.6002C19.5283 49.7263 22.278 48.5413 25.1912 48.1867C28.1043 47.8321 31.0579 48.3228 33.7 49.6002L34.85 50.1602V44.0002L34.45 43.7402H34.39C32.1899 42.2808 29.6101 41.4985 26.97 41.4902C23.8529 41.5304 20.8432 42.6348 18.44 44.6202C16.5666 45.9578 14.4658 46.9438 12.2399 47.5302V45.5302C14.0298 44.9983 15.7193 44.1739 17.2399 43.0902C19.4983 41.2163 22.248 40.0314 25.1612 39.6767C28.0743 39.3221 31.028 39.8128 33.67 41.0902L34.82 41.6502V27.3502C34.82 25.4002 29.5999 20.9202 26.3099 18.5602L26.1 18.4102H11.3999L11.19 18.5602C7.90995 20.9202 2.68995 25.4002 2.68995 27.3502V45.6002L3.28996 45.7502C4.56147 46.0756 5.86751 46.2469 7.17994 46.2602V48.1602C5.99399 48.144 4.81217 48.0168 3.64994 47.7802L2.64994 47.5802V54.1002L3.24995 54.2502C4.5224 54.5707 5.82789 54.7419 7.13996 54.7602V56.6602C5.95402 56.644 4.77216 56.5168 3.60994 56.2802L2.60993 56.0802L2.68995 68.0502Z" fill="white"/>
<path d="M16.73 3.4502C17.4203 3.4502 17.98 2.89055 17.98 2.2002C17.98 1.50984 17.4203 0.950195 16.73 0.950195C16.0396 0.950195 15.48 1.50984 15.48 2.2002C15.48 2.89055 16.0396 3.4502 16.73 3.4502Z" fill="white"/>
<path d="M12.2299 9.0501C11.9629 9.0501 11.7019 8.97091 11.4799 8.82257C11.2579 8.67423 11.0848 8.4634 10.9826 8.21672C10.8805 7.97004 10.8537 7.6986 10.9058 7.43672C10.9579 7.17485 11.0865 6.9343 11.2753 6.7455C11.4641 6.5567 11.7046 6.42813 11.9665 6.37604C12.2284 6.32395 12.4998 6.35068 12.7465 6.45285C12.9932 6.55503 13.204 6.72807 13.3524 6.95008C13.5007 7.17208 13.5799 7.43309 13.5799 7.70009C13.5799 7.87738 13.545 8.05293 13.4771 8.21672C13.4093 8.38051 13.3098 8.52932 13.1845 8.65468C13.0591 8.78004 12.9103 8.87949 12.7465 8.94733C12.5827 9.01517 12.4072 9.0501 12.2299 9.0501Z" fill="white"/>
<path d="M18.25 11.7002C19.0784 11.7002 19.75 11.0286 19.75 10.2002C19.75 9.37177 19.0784 8.7002 18.25 8.7002C17.4216 8.7002 16.75 9.37177 16.75 10.2002C16.75 11.0286 17.4216 11.7002 18.25 11.7002Z" fill="white"/>
</svg>
